# xmcd
#
# Track frame offsets:
#	183
#	12598
#	24243
#	32750
#	43893
#	52768
#	62155
#	81933
#	93483
#	114205
#	124173
#	135650
#	150195
#	160818
#	167648
#	175698
#
# Disc length: 2453 seconds
#
# Revision: 2
# Processed by: cddbd v1.5.2PL0 Copyright (c) Steve Scherf et al.
# Submitted via: EasyCDDAExtractor 12.0.1.1
#
DISCID=be099310
DTITLE=Fats Domino - Greatest Hits - Live
DYEAR=1995
DGENRE=Blues
TTITLE0=I'm Walkin'
TTITLE1=Blueberry Hill
TTITLE2=I'm Ready
TTITLE3=Going To The River
TTITLE4=My Girl Josephine
TTITLE5=I Want To Walk You Home
TTITLE6=Let The Four Winds Blow
TTITLE7=Ain't That A Shame
TTITLE8=Jambalaya (On The Bayou)
TTITLE9=I'm Gonna Be A Wheel Some Day
TTITLE10=Blue Monday
TTITLE11=I'm In Love Again
TTITLE12=Walking To New Orleans
TTITLE13=Whole Lotta Loving
TTITLE14=My Toot Toot
TTITLE15=When the Saints Go Marching In
EXTD=YEAR: 1993
EXTT0=
EXTT1=
EXTT2=
EXTT3=
EXTT4=
EXTT5=
EXTT6=
EXTT7=
EXTT8=
EXTT9=
EXTT10=
EXTT11=
EXTT12=
EXTT13=
EXTT14=
EXTT15=
PLAYORDER=
